<?xml version="1.0" encoding="utf-8"?>
<!-- Generator: Adobe Illustrator 26.0.0, SVG Export Plug-In . SVG Version: 6.00 Build 0)  -->
<svg version="1.1" xmlns="http://www.w3.org/2000/svg" xmlns:xlink="http://www.w3.org/1999/xlink" x="0px" y="0px"
	 viewBox="0 0 1058 1045" style="enable-background:new 0 0 1058 1045;" xml:space="preserve">
<style type="text/css">
	.st0{display:none;}
	.st1{fill:#983B39;}
	.st2{fill:#D89050;}
	.st3{fill:#FFFFFF;}
	.st4{fill:#BF613D;}
	.st5{fill:none;}
	.st6{font-family:'BellMTBold';}
	.st7{font-size:169px;}
</style>
<g id="Capa_2" class="st0">
	
		<image style="display:inline;overflow:visible;enable-background:new    ;" width="273" height="243" xlink:href="D:\Nueva carpeta (5)\Imprebook\Pedidos\marta muño\5FB391CA.jpg"  transform="matrix(3.0037 0 0 3.0037 -991 -320)">
	</image>
</g>
<g id="Capa_1">
	<g id="Capa_1_00000093879149952807444220000015604635535570770095_">
		<path class="st1" d="M494,1021.9L29.1,557c-18-18-18-47.1,0-65.1L494,27.1c18-18,47.1-18,65.1,0L1024,492c18,18,18,47.1,0,65.1
			L559.1,1022C541.1,1039.9,512,1039.9,494,1021.9z"/>
	</g>
	<g id="Capa_6">
		<g>
			<g>
				<g>
					<g>
						<path class="st1" d="M540.1,418.7c59,23.4,117.8,47.2,176.9,70.3c29.2,11.4,58.5,22.3,88.1,32.6c14.7,5.1,29.4,10.3,44,15.5
							c6.7,2.4,13.4,4.8,20.1,7.4c-0.1,0,5.7,2.3,2.5,0.9c1.7,0.7,3.3,1.5,4.9,2.3c3.5,1.8,7,3.8,10.4,5.8c2.9,1.8,5.7,3.6,8.5,5.4
							c1.5,1,3.1,2,4.6,3c-2.8-2,1,1,1.3,1.3c3.6,3-2.2-2.7,0.4,0.7c2.6,3.3-1.5-3.4,0,0.3c1.3,3.4,0.4-3.6-0.1,0c0,0.4,0,0.8,0,1.2
							c-0.2,2-0.1,1.7,0.2-1c0.7,0.9-1.9,6.6-2.3,7.7c-1.5,4.4,1.7-3.4-0.4,0.9c-0.6,1.2-1.1,2.4-1.7,3.5c-1.1,2.2-2.2,4.5-3.4,6.6
							c-0.4,0.7-0.8,1.4-1.2,2.1c-0.4,0.7-0.8,1.4-1.3,2c-1.1,1.6-0.9,1.3,0.7-0.9c0,0-2.2,2.3-2.3,2.5c-2.6,2.8,3.4-2.2,0.2-0.2
							c-3.3,2,4-1.3,0.3-0.2c-3.8,1.1,4.4-0.3,0.2-0.1c-3.8,0.2,3.4,1.5-0.6-0.1c-0.9-0.4-2-0.6-3-0.9c-4.2-1.4-8.2-3.1-12.3-4.6
							c-3.5-1.4-7-2.8-10.5-4.2c0.1,0.1-5.6-2.3-2.7-1.1c-1.7-0.7-3.5-1.5-5.2-2.2c-6.9-3-13.7-6.2-20.4-9.7
							c-28.1-14.3-55.3-30.5-82.7-46c-27.4-15.4-54.7-31-82.1-46.5c-13.5-7.7-27.1-15.3-40.6-23c-13.5-7.6-26.8-15.9-40.7-22.6
							c-3.1-1.5-6.3-2.9-9.4-4.2c-2.5-1.1-5-2.1-7.5-3.1c-0.2-0.1-5.4-2.3-2.1-0.8c-6.3-2.7-12.4-5.7-18.2-9.3
							c-13.1-8-28-13.1-43.5-12c-15.8,1-30,6.6-44.4,12.9c-13.7,6-27.3,12.4-40.8,18.9c-26.9,13.1-53.3,27.2-79.4,41.8
							c-51.7,28.9-101.7,60.6-153.3,89.7c-6.2,3.5-12.5,6.7-19,9.7c-3.1,1.5-6.2,2.9-9.3,4.2c0.1,0-5.5,2.3-2.6,1.1
							c-2.3,1-4.6,1.9-6.9,2.8c-6,2.4-12,5-18.2,6.9c-1.2,0.4-2.4,0.6-3.6,0.9c-3.8,1,4.1,0.2,0.5-0.2c-1.4-0.1-4.8-0.6,0.9,0.3
							c-4.6-0.7,2.5,1.4-0.1,0.2c-3-1.5,0.1-1.4,0.4,0.5c-0.1-0.4-2-2-2.3-2.3c-1.3-1.3-1.3-0.3,0.6,0.8c-0.8-0.5-1.7-2.5-2.2-3.3
							c-1.7-2.7-3.1-5.5-4.5-8.3c-0.7-1.5-1.5-3-2.2-4.6c1.7,3.7-0.7-1.9-0.9-2.6c-0.1-0.3-1.4-6.1-1.6-6.2c0.8,0.2,0.2,4.5,0.2,0.4
							c0-4.3,0.1,0.9-0.3,0.8c0,0,0.6-2.8,0.8-2.8c0.6,0-2.5,4.3,0,0.9c-3.1,4.3-1,1.5-0.2,0.6c1.4-1.2,1.1-1-1.1,0.7
							c0.7-0.5,1.3-0.9,2-1.3c25.4-16,49.7-25.9,76.6-35.2c28.5-9.8,57-19.5,85.4-29.5c57.7-20.2,115-41.9,170.1-68.4
							c6.3-3,12.5-6.1,18.7-9.3c3.4-1.7,7.1-3.3,10.3-5.3c6.1-3.8,8-9.4,9.4-15.9c2.2-9.7-2.9-19.2-12.6-22.1
							c-15.3-4.7-30.5-9.4-45.8-14.1c-3.2-1-6.4-2-9.5-2.9c-1.9-0.6-3.8-1.2-5.7-1.8c-0.6-0.2-1.3-0.4-1.9-0.6
							c-2.4-0.8-2.5-0.8-0.5,0.1c-0.5-0.3-0.9-0.5-1.4-0.8c1.5,1.1,1.4,1-0.3-0.3c-1.6-1.4-3.3-2.6-5-3.9c-3-2.3-6-4.4-9.3-6.3
							c-11.2-6.4-24.1-10-37-8.5c-7.8,0.9-14.8,2.9-22,6.1c-3.1,1.4-6.2,2.9-9.2,4.6c-1.6,0.9-3.3,1.9-4.9,2.8
							c-0.4,0.2-5.1,2.3-2.3,1.2c-3.1,1.2-6.3,2.1-9.6,2.7c4.1-0.8-0.8,0-1.5,0c-1.6,0.1-3.1-0.1-4.7-0.1c-0.8,0-3.5-0.4,0.1,0.1
							c-1.6-0.2-3.1-0.6-4.7-0.9c-1.6-0.4-3.1-0.8-4.7-1.3c-0.6-0.2-6.7-2.6-3.6-1.2c-13.7-6-27-13.5-40.4-20.2
							c-27.3-13.7-54.6-27.4-81.8-41.1c-15.4-7.7-30.9-15.5-46.3-23.2c-8-4-16-8-24-12.1c-3.6-1.8-7.3-3.5-10.9-5.5
							c-0.9-0.5-4-2.9-0.5,0c-1.3-1.4-1.3-1.3,0,0.4c-0.6-0.9-1.2-1.9-1.6-3c-6.8,8.8-13.6,17.6-20.3,26.4
							c16.8,5,28.8,10.6,44.9,17.4c16.7,7.1,33.4,14.1,50.1,21.2c16.4,7,32.8,13.9,49.2,20.9c7.9,3.4,15.9,6.6,23.6,10.4
							c6.8,3.3,12.6,4.1,20,3c4.1-0.6,8.1-1.9,12.2-2.9c12.1-3,15.5-16.3,10.8-26.4c2.1,4.5-0.4-1.2-0.7-2.1
							c-0.9-2.3-1.7-4.6-2.8-6.8c-2.3-4.5-5.7-8.3-10-11c-7.7-4.8-16.2-8.7-24.2-12.9c-16.5-8.6-33.1-17-49.7-25.5
							c-16.3-8.3-32.5-16.7-48.8-25c-8.1-4.2-16.2-8.4-24.4-12.6c-4.1-2.1-8.1-4.2-12.2-6.3c-1.6-0.8-3.4-2.3-5.1-2.7
							c2.8,1.6,4.6,3.8,5.4,6.7c-0.3-1-0.5-1.9-0.5-2.9c-7.4,7.4-14.8,14.8-22.1,22.1c4.1,1.3,8.3,2.4,12.3,3.9
							c1.2,0.5,2.4,0.9,3.5,1.5c-1.2-0.5-0.8-0.4,1.2,0.5c1.8,0.8,3.7,1.5,5.5,2.3c8.6,3.6,17.1,7.2,25.7,10.8
							c16.8,7.1,33.6,14.2,50.4,21.3s33.6,14.2,50.4,21.4c9,3.8,17.9,8.4,27.1,11.8c11.1,4.1,20.3-1.3,30.1-6
							c9.5-4.6,10-16.3,6.5-24.6c1.9,4.5-0.2-1.3-0.6-2.1c-0.8-2.2-1.8-4.5-3-6.6c-3-5-7.7-8-12.6-10.8c-7.2-4.2-14.8-7.7-22.2-11.5
							c-16.5-8.4-33-16.9-49.5-25.3c-16.5-8.4-33-16.9-49.5-25.3c-15.7-8-31.4-15.7-46.3-25.2c2.2,8.2,4.3,16.4,6.5,24.6
							c0.6-1.2,1.1-2.4,1.7-3.5c-6.8,2.8-13.6,5.5-20.3,8.3c16.5,5.6,32.4,12.6,48.5,19.4c16.1,6.8,30.6,12.9,47.8,20.2
							c16.5,6.9,32.9,13.9,49.4,20.9c8.6,3.6,17,8.1,25.7,11.3c9.7,3.6,19.5,0.6,29.1-1.4c11.8-2.5,15.9-16.8,10.8-26.4
							c-4.1-7.6-6.4-14.5-14.2-19.4c-7.7-4.8-16.2-8.7-24.2-12.9c-16.5-8.7-33.1-17.2-49.6-25.7c-31.9-16.4-64-32.5-93.8-52.5
							c-4.6,11-9.2,21.9-13.9,32.9c1.7,0.4,3.5,0.6,5.2,1c0,0,5.5,1.4,2.6,0.4c3.1,1,6.1,2.7,9.1,4c7.3,3.2,14.6,6.3,21.9,9.5
							c14,6.1,28,12.1,42.1,18.2c28,12.1,56.1,24.3,84.1,36.4c14,6.1,28,12.2,42.1,18.2c5.4,2.3,10.9,4.5,15.9,7.6
							c1.1,0.7,2.2,1.5,3.3,2.1c3.7,2.3-2.7-2.6,0.5,0.3c1.9,1.7,3.6,3.5,5.4,5.3c2.9,3-1.9-3.3,0.3,0.3c0.6,0.9,1.2,1.8,1.7,2.7
							c0.5,0.9,1.1,1.9,1.5,2.8c0.2,0.4,0.4,0.8,0.6,1.2c0.8,1.8,0.7,1.6-0.3-0.7c1.3,1.4,1.8,5.4,2.2,7.3c0.7,3,1.1,6.1,1.7,9.1
							c2.3,11.4,7.4,21.9,14.7,30.9c6.3,7.7,14.7,13.8,23.8,17.8c5.4,2.4,10.9,4.6,16.7,6.1c1.1,0.3,2.3,0.7,3.4,0.8
							c2.6,0.3-3.7-2.3-0.6-0.3c-3.9-2.6-0.9-0.5,0,0.5c1.2,1.3,2.3,2.6,3.5,3.9c4.9,5.1,10.9,8,17.1,11.1
							c6.9,3.5,13.8,6.9,20.7,10.3c13.4,6.5,26.8,13.3,40.5,19.1c16.5,7,32.9-3.8,47.5-10.7c13.2-6.3,26.3-12.7,39.4-19.2
							c5.4-2.7,10.6-5.4,15.6-8.7c2.4-1.6,4.8-3.2,7.3-4.6c1.3-0.8,2.5-1.5,3.8-2.2c0.7-0.4,4.8-1.8,1.2-0.7
							c11.5-3.6,22.9-6.7,31.2-16.2c9.2-10.4,13.4-23.8,12.1-37.6c-0.3-3.2-0.6-6.4-0.6-9.6c0-1,0-2.1,0.1-3.1c0-0.7,0.6-5.8,0-1.3
							c0.4-3,1.1-6,1.9-8.9c0.3-1,0.6-1.9,0.9-2.9c0.3-0.8,2.8-6.5,0.9-2.7c2.4-5,5.2-9.8,8.5-14.3c-2.4,3.3,0.7-0.8,1.1-1.2
							c1-1.2,2.1-2.3,3.1-3.5c2.2-2.3,4.5-4.5,6.9-6.7c4.2-4,8.6-7.9,13.1-11.7c2.2-1.9,4.4-3.7,6.7-5.5c0.7-0.5,3.5-2.7,0.6-0.5
							c1.6-1.2,3.3-2.5,5-3.7c9.4-6.8,19.2-13,29.5-18.4c4.8-2.5,9.7-4.9,14.7-7c-4,1.7,0.6-0.2,1.2-0.4c0.9-0.4,1.8-0.7,2.8-1.1
							c3.2-1.2,6.5-2.3,9.7-3.4c5.2-1.6,10.4-3.1,15.7-4.3c2.4-0.6,4.8-1.1,7.3-1.5c1.5-0.3,2.9-0.5,4.4-0.8c0.8-0.1,7.3-1,2.6-0.4
							c11.7-1.4,23.5-1.9,35.3-1.2c2.6,0.1,5.3,0.3,7.9,0.6c1.6,0.1,3.2,0.3,4.8,0.5c0.5,0.1,5.8,0.8,1.7,0.2
							c6.1,0.9,12.1,1.9,18,3.5c2.2,0.6,4.4,1.3,6.6,2c1.3,0.4,2.5,0.9,3.8,1.4c4.2,1.5-3.5-1.7,0.5,0.2c4.3,2.1,8.5,4.3,12.4,7
							c0.5,0.3,2.3,1.2,2.4,1.7c-0.6-0.5-1.2-0.9-1.8-1.4c0.6,0.5,1.2,1,1.8,1.5c1.6,1.4,3.1,2.8,4.6,4.3c0.8,0.9,3,4.4,4.1,4.7
							c-0.5-0.6-1-1.2-1.5-1.9c0.4,0.6,0.9,1.2,1.3,1.8c0.6,0.9,1.2,1.8,1.8,2.8c1.2,1.9,2.1,3.9,3.2,5.8c1.8,3.5-1.4-4-0.1-0.2
							c0.2,0.7,0.5,1.4,0.8,2.1c0.7,2.1,1.4,4.3,1.9,6.5c0.3,1.1,0.5,2.2,0.7,3.3c0.1,0.6,0.2,1.1,0.3,1.7c0.2,1.4,0.1,0.8-0.3-1.9
							c-0.6,1.1,0.4,5.6,0.5,7.1c0,2,0,4-0.1,6.1c-0.1,1.2-0.2,2.5-0.3,3.7c-0.3,4.4,0.8-4.1,0,0.2c-0.5,2.6-1,5.2-1.6,7.7
							c-1.2,5-2.9,9.8-4.8,14.5c1.6-4.2-0.3,0.6-0.6,1.2c-0.7,1.4-1.3,2.8-2,4.2c-1.4,2.8-2.8,5.5-4.4,8.2
							c-2.8,4.8-5.8,9.5-9.1,14.1c-0.3,0.5-3.4,4.4-0.8,1.2c-0.9,1.2-1.9,2.3-2.8,3.5c-1.9,2.3-3.9,4.5-5.9,6.7
							c-3.7,4-7.7,7.8-11.8,11.5c-2.3,2-4.6,3.9-6.9,5.8c-2.6,2.1-0.5,0.4,0.1,0c-1.6,1.2-3.2,2.4-4.9,3.6
							c-10,7.1-20.7,13-31.6,18.6c-12.9,6.7-21.5,10.8-33.5,15c-5.9,2.1-11.9,3.9-17.9,5.3c-2.7,0.7-5.5,1.2-8.3,1.8
							c-1.7,0.3-3.3,0.6-5,0.8c3.9-0.6-3,0.3-3.7,0.3c-6.3,0.5-12.7,0.6-19,0.2c-1.8-0.1-3.5-0.3-5.3-0.5c-0.5-0.1-3.5-0.5-0.5-0.1
							c-4.1-0.7-8.1-1.4-12.1-2.6c-2.8-0.8-5.5-1.7-8.2-2.9c3.3,1.4-2-1-2.1-1.1c-1.6-0.8-3.2-1.6-4.7-2.5
							c-6.2-3.4-12-7.4-17.9-11.3c-10.5-7.1-24.2-11.1-36.9-9.9c-7.4,0.7-14.1,2.4-20.8,5.8c-3,1.5-5.7,3.6-8.3,5.7
							c-1.1,0.9-2.1,1.8-3.2,2.7c1.8-1.3,1.8-1.3,0-0.3c-1.8,0.9-1.9,0.9,0,0c-13.4,4.9-26.6,10.2-39.9,15.3
							c-6.7,2.6-13.5,5.2-20.2,7.8c-4.9,1.9-10.5,3.3-14.4,7.1c-4.4,4.4-5,10-6.2,15.6C525.7,405.8,530.2,416.5,540.1,418.7
							c8.9,2,20.2-2.7,22.1-12.6c0.5-2.6,1-5.1,1.5-7.7c-4.2,4.2-8.4,8.4-12.6,12.6c14.7-5.7,29.4-11.3,44-17
							c6.5-2.5,12.9-5.2,19.5-7.5c3.5-1.2,6.9-2.5,10.3-4.1c4.1-2,7.3-5,10.7-7.9c-3.3,2.8,2-0.9,3.3-1.5c-4.2,1.9-0.1,0.3,0.8,0
							c1.2-0.3,4.8-2,0.6-0.3c1.8-0.7,6.5-0.6,8.3,0c-0.5-0.2-4-0.9-0.7,0c1.8,0.5,3.6,1,5.4,1.5c4.2,1.3-2.9-1.9,0.9,0.4
							c1.2,0.8,2.5,1.4,3.7,2.2c2.3,1.5,4.6,3.2,6.9,4.8c5.9,3.9,12,7.6,18.4,10.6c54.7,25.8,114.6,3.3,163.8-24.3
							c21.4-12,41.4-27.7,56.8-46.9c15.2-19,28.3-41.4,32.9-65.6c4.2-21.5,2.3-44-8.8-63.3c-11.1-19.4-29.9-32.3-50.6-39.6
							c-11.9-4.3-24.6-6-37.2-7.4c-11.9-1.3-24-1.7-36-1c-25.7,1.6-50.2,7.8-73.8,18c-22.4,9.7-42.6,23.2-61.4,38.6
							c-20.3,16.8-39.6,36-46.6,62.2c-1.7,6.4-2.6,13.2-2.8,19.9c-0.2,6.3,0.9,12.5,0.8,18.7c0,4.4,1.2-3.3-0.2,0.6
							c-0.3,0.9-0.8,2.1-0.9,3.1c-0.3,2.2,2.1-3.4,0-0.3c-0.2,0.3-0.4,0.7-0.6,1c-1.1,1.6-0.8,1.4,0.7-0.7c0,0.5-2,2.2-2.4,2.6
							c-3.1,2.9,0,0.2,0,0.1c0,0.1-1.7,1.1-2,1.3c-0.7,0.4-1.4,0.8-2.1,1.1c-1.8,0.8-1.4,0.7,1-0.4c-0.1-0.5-17.1,5.8-17.8,6.1
							c-5.3,2.5-10.1,5.7-15,8.9c-12.2,7.8-25.9,13.6-38.9,20c-6.4,3.1-12.9,6.2-19.3,9.3c-2.9,1.4-5.9,2.8-8.8,4.1
							c-0.2,0.1-6,2.5-2.3,1.2c-1,0.4-1.9,0.6-2.9,0.9c2.2-0.2,2.2-0.3,0.2-0.2c1,0.2,5.6,2,1.5,0c-1.2-0.5-2.3-1.1-3.5-1.6
							c-3.5-1.6-7-3.3-10.5-4.9c-7-3.3-13.9-6.6-20.9-10c-6.4-3.1-12.7-6.3-19-9.5c-3.3-1.7-6.8-4.2-10.3-5.3
							c-0.3-0.2-0.7-0.4-1-0.6c1.8,1.5,2.2,1.8,1.2,0.9c-0.6-1.1-2.3-2.3-3.2-3.3c-4.6-5.1-9.6-9.2-16.3-11.2
							c-2.6-0.8-5.4-1.3-8-2.1c-1.3-0.4-2.5-0.8-3.7-1.3c-0.8-0.3-1.6-0.6-2.4-0.9c0.7,0.3,1.3,0.6,2,0.8c-1.9-0.1-4.8-2.3-6.5-3.3
							c-1-0.6-2-1.2-3-1.9c-3.4-2.3,0.1-0.6,0,0.1c0.1-0.4-3.7-3.4-4.1-3.8c-0.2-0.2-2-2.5-2.2-2.5c1.6,2.2,1.9,2.5,0.8,1
							c-0.4-0.6-0.9-1.2-1.3-1.9c-1-1.6-1.9-3.3-2.8-5c-2-3.6,1.3,3.9-0.1-0.1c-0.4-1.2-0.8-2.3-1.2-3.5c-1.6-5.3-2.1-10.8-3.4-16.1
							c-2.9-11.8-9-23-17.7-31.5c-9.1-9-20.1-14-31.6-19c-56.7-24.6-113.4-49.1-170.1-73.7c-14.3-6.2-28.6-13.7-43.8-16.9
							c-8.9-1.9-17.6,1.9-21.2,10.4s-0.2,17.4,7.4,22.5c28.7,19.3,59.6,34.9,90.3,50.7c15.7,8.1,31.4,16.1,47,24.3
							c7.8,4.1,15.6,8.2,23.4,12.4c1.7,0.9,3.4,2,5.2,2.8c2.4,1.4,2.3,1.2-0.2-0.5c-1.6-2.1-1.8-2.3-0.8-0.6c1.2,2.9,2.5,5.8,4,8.6
							c3.6-8.8,7.2-17.6,10.8-26.4c-2,0.4-3.9,0.9-5.9,1.3c-0.8,0.2-6.6,1.1-2.8,0.6c-5.4,0.6,2.4,0,1.5,0.6
							c-0.3,0.2-3.7-1.9-4.4-2.2c-7.8-3.6-15.9-6.7-23.8-10c-16.1-6.8-32.3-13.6-48.4-20.5c-16.7-7-33.3-14.1-50-21.1
							c-15.8-6.6-31.4-13.6-47.6-19c-7-2.4-17.1,1.4-20.3,8.3c-0.6,1.2-1.1,2.4-1.7,3.5c-4.3,9-2.3,19,6.5,24.6
							c14.3,9.1,29.4,16.5,44.5,24.2c15.9,8.1,31.8,16.3,47.7,24.4c15.9,8.1,31.8,16.3,47.7,24.4c7.1,3.6,14.2,7.1,21.3,10.8
							c1.8,1,3.7,2,5.5,3c1.2,0.7,5.2,4.2,2.6,1.1c-0.7-0.8-2.8-5.2-1.8-2.2c0.9,2.8,2.1,5.4,3.3,8.1c2.2-8.2,4.3-16.4,6.5-24.6
							c-1.7,0.8-3.6,1.6-5.1,2.6c-1.2,0.6-1,0.5,0.6-0.1c-3.2,0.9-2,1,3.7,0.5c1.5,0.6,1.7,0.7,0.6,0.1c-0.7-0.4-1.5-0.7-2.2-1.1
							c-1.8-0.8-3.7-1.6-5.5-2.3c-7.9-3.4-15.9-6.7-23.8-10.1c-16.2-6.9-32.4-13.7-48.6-20.6c-15.9-6.7-31.8-13.5-47.6-20.2
							c-16.7-7-33.1-14.5-50.4-19.9c-6.1-1.9-13.1,0.2-17.5,4.6c-5,5-5.5,10.9-4.6,17.5c1.6,11.5,10,16.9,19.4,21.8
							c8.1,4.2,16.2,8.4,24.3,12.6c16.5,8.5,33.1,17,49.6,25.5c16.6,8.5,33.2,16.9,49.8,25.4c8.1,4.2,16.2,8.4,24.3,12.7
							c2.3,1.2,4.5,2.8,6.9,3.7c6.2,2.5-4.6-6-1.8-2.2c0.8,1.7,0.8,1.5-0.2-0.6c0.3,0.9,0.6,1.8,1,2.6c1,2.7,2.1,5.4,3.4,8
							c3.6-8.8,7.2-17.6,10.8-26.4c-2,0.5-4,1.1-6.1,1.6c-0.9,0.2-1.7,0.5-2.6,0.7c-2.2,0.4-2.3,0.5-0.4,0.1c4.8,1.6,6.1,1.9,4,0.8
							c-0.7-0.4-1.5-0.8-2.2-1.2c-1.7-0.8-3.4-1.5-5.1-2.2c-7.9-3.3-15.8-6.7-23.7-10c-16.1-6.8-32.2-13.7-48.3-20.5
							c-15.8-6.7-31.6-13.4-47.4-20.1c-16.2-6.8-32.1-14-48.9-19.1c-6.9-2.1-14.6,0.9-18.9,6.5c-4.6,6-4.7,13.4-1.4,20
							c7.2,14.5,23.8,20,37.5,26.8c14.2,7.1,28.5,14.3,42.7,21.4c28.5,14.3,57,28.5,85.4,42.9c14.2,7.2,28.5,14.3,42.7,21.5
							c13.6,6.9,27.2,12.9,42.7,13.4c7.4,0.2,15.2-0.9,22.2-3.4c7.9-2.8,14.7-7.1,22.1-10.8c0.4-0.2,5.4-2.2,1.7-0.8
							c1.4-0.5,2.9-1.1,4.4-1.5c1.4-0.4,2.8-0.7,4.3-1.1c4.4-1.2-3.7-0.1,0.8-0.1c1.7,0,5.2-0.8,6.7,0.1c-0.7-0.1-1.4-0.2-2.1-0.3
							c0.9,0.2,1.8,0.3,2.6,0.5c1.8,0.4,3.5,1,5.2,1.6c-4.2-1.4,0.1,0.1,0.9,0.5c1.8,0.9,3.5,1.9,5.2,3c1.4,0.9,2.6,1.8,4,2.7
							c3.2,2.2-1.1-1.1,1.7,1.4c8.3,7.1,17.9,9.6,28.1,12.7c17.1,5.3,34.3,10.6,51.5,15.8c-4.2-7.4-8.4-14.8-12.6-22.1
							c-0.4,1.7-0.8,3.4-1.1,5.1c2.8-3.6,5.5-7.2,8.3-10.8c-56.7,29.1-110.7,50.9-171,72.5c-29,10.4-58.1,20.3-87.1,30.2
							c-30.6,10.5-60.4,21.6-88.9,37c-12.7,6.9-25.7,13.4-31.1,27.8c-4.9,13.2-0.4,26.9,5.1,39c5.3,11.7,12.3,24.3,24,30.5
							c13.5,7.2,27.2,2.9,40.5-2.2c14.8-5.7,29.4-11.8,43.5-19c13.8-7.1,27.1-15.3,40.4-23.2c26.8-15.9,53.6-31.9,80.5-47.6
							c53.3-31.1,107.6-60.9,164.2-85.7c5.5-2.4-3.1,1.1,2.4-1c1.6-0.6,3.3-1.3,4.9-1.9c2.9-1,5.8-2,8.8-2.7
							c1.3-0.3,2.6-0.7,3.9-0.9c0.6-0.1,5.8-0.9,1.4-0.4c3.6-0.4,7.2-0.4,10.8-0.3c4.8,0.1-3.3-1,1.4,0.2c1.6,0.4,3.1,0.7,4.7,1.2
							c1.6,0.5,3.2,1,4.7,1.7c-3.4-1.4,1.9,1.1,2.1,1.2c6.7,3.6,12.9,7.7,19.9,10.8c4,1.8,8.1,3.5,12.2,5.2c0.2,0.1,5.4,2.3,2.1,0.8
							c1.6,0.7,3.2,1.4,4.7,2.1c7.3,3.3,14.3,7.4,21.3,11.4c14.4,8.1,28.8,16.2,43.2,24.4c57,32.3,113.9,64.7,171.2,96.5
							c13.3,7.4,26.8,13.9,40.8,19.9c7.8,3.3,15.7,6.5,23.6,9.5c7.5,2.9,14.9,5.8,23.1,5.6c15-0.4,26.3-10.5,33.4-23.1
							c6.2-11.1,12.4-24.1,12.5-37.1c0-7.3-2.1-14.7-6.2-20.8c-5-7.3-12-12-19.3-16.7c-14-9.1-28.7-15.5-44.4-21.2
							c-30.5-11.1-61.2-21.4-91.7-32.5c-61.3-22.4-121.7-47.4-182.2-71.6c-14.7-5.9-29.5-11.8-44.2-17.6
							c-8.8-3.5-20.1,3.8-22.1,12.6C525.2,407,530.8,415,540.1,418.7z"/>
						<path class="st1" d="M905.6,212c0.6-1.3,1.2-2.6,1.9-3.8c4.3-8.9,2.4-19.3-6.5-24.6c-14.1-8.5-27-17.7-43-22.4
							c-12.4-3.6-25.5-5.2-38.4-5.4c-26.6-0.4-53.8,5.2-78.5,14.9c-49.9,19.5-103.5,58.2-105.3,116.8c-1,34.1,16.3,67.1,45,85.4
							c12.8,8.2,31.5-5.5,26.4-20.3c-3.3-9.5-7.2-18.7-9.5-28.5c-0.5-2.3-0.9-4.6-1.4-6.9c-0.5-2.5,0.7-0.3,0.1,0.7
							c0.1-0.2-0.2-2.2-0.3-2.7c-0.4-4.6-0.3-9.1-0.1-13.6c0.1-2-0.8-2.9-0.1,0.4c-0.1-0.5,0.3-1.9,0.4-2.5c0.4-2,0.8-4.1,1.4-6.1
							c0.6-2,1.3-4,1.9-5.9c0.4-1.2,0.3-2.7-0.4,0.8c0.2-1.1,1.1-2.4,1.6-3.4c2-3.9,4.3-7.5,6.8-11.1c0.5-0.7,2.2-2.4-0.3,0.4
							c0.6-0.7,1.2-1.4,1.8-2.1c1.9-2.2,3.8-4.3,5.9-6.3c3.3-3.2,6.8-6.2,10.3-9.2c4.1-3.3-2.9,2,1.6-1.2c0.9-0.7,1.8-1.3,2.7-2
							c2.5-1.8,5-3.6,7.5-5.3c8.7-6,17.8-11.5,27.1-16.3c2.4-1.2,4.7-2.4,7.1-3.5c1-0.4,1.9-0.9,2.9-1.3c0.4-0.2,5.3-2.3,1.5-0.7
							c4.8-2,9.7-3.8,14.6-5.4c4.4-1.4,8.9-2.7,13.4-3.8c2.5-0.6,5-1.1,7.6-1.6c1-0.2,2-0.4,3-0.6c0.5-0.1,6.1-1,3.7-0.6
							c-2.8,0.4,2.2-0.3,2.2-0.3c1.6-0.2,3.1-0.3,4.7-0.4c2.9-0.2,5.7-0.4,8.6-0.5c5.8-0.2,11.7,0,17.5,0.5c1.3,0.1,2.7,0.2,4,0.4
							c0.4,0,5.7,0.7,1.7,0.2c3,0.4,6,0.9,9.1,1.5c6.5,1.3,12.9,2.9,19.3,4.8c9,2.7,20-3.2,22.1-12.6c2.2-9.7-2.9-19.2-12.6-22.1
							c-23.5-7-48.5-10.3-72.9-7.9c-24.1,2.4-46.8,9.1-68.6,19.4c-21.6,10.2-42.8,23.8-60.4,40c-15.1,13.9-27.5,32.4-31.2,52.8
							c-2.3,12.9-2,25.3,0.3,38.2c2.1,11.8,6.8,22.8,10.7,34.1c8.8-6.8,17.6-13.6,26.4-20.3c-1.3-0.8-2.6-1.8-4-2.6
							c-1.7-1.1,0.8,0.7,0.9,0.8c-0.5-0.4-1-0.8-1.6-1.3c-2.4-2-4.6-4.2-6.8-6.4c-1.1-1.1-2-2.3-3.1-3.5c-2.2-2.6,1.5,2.3-0.4-0.6
							c-1.7-2.6-3.4-5.1-4.9-7.8c-0.7-1.4-1.4-2.7-2.1-4.1c-0.3-0.5-0.7-1.2-0.8-1.8c0,0,1.2,3.2,0.5,1.3c-1-2.9-2.1-5.8-2.9-8.8
							c-0.8-2.8-1.3-5.6-1.8-8.4c-0.6-3.5,0.2,3.1,0-0.5c-0.1-1.8-0.3-3.5-0.4-5.3c-0.1-2.9,0-5.7,0.2-8.6c0.1-1.3-0.2-5.8,0-1.1
							c0-1.4,0.5-3.1,0.8-4.6c0.6-2.8,1.3-5.6,2.2-8.3c0.4-1.3,0.9-2.5,1.3-3.8c1.3-3.5-0.2,0.7-0.3,0.6c0,0,1.1-2.2,1.1-2.4
							c2.4-4.8,5.3-9.2,8.4-13.6c2.4-3.4-1.6,1.9,0.4-0.5c0.8-0.9,1.5-1.8,2.3-2.7c1.8-2.1,3.7-4.2,5.7-6.2c3.9-4,8.1-7.6,12.4-11.2
							c0.4-0.4,1-0.9,1.5-1.2c-0.4,0.2-3.2,2.4-0.6,0.5c1-0.8,2-1.5,3.1-2.3c2.4-1.8,4.9-3.5,7.5-5.1c5-3.2,10.1-6.2,15.3-8.9
							c2.6-1.3,5.1-2.6,7.7-3.9c1.2-0.6,2.4-1.1,3.6-1.7c1.3-0.6,5.6-2.4,1.9-0.9c11.2-4.5,22.7-8.3,34.5-11.1
							c2.8-0.6,5.6-1.2,8.4-1.8c1.5-0.3,3-0.5,4.5-0.8c0.8-0.1,5.4-0.8,2.8-0.4c-2.8,0.4,2.2-0.2,2.8-0.3c1.3-0.1,2.6-0.3,3.9-0.4
							c3-0.3,5.9-0.4,8.9-0.5c6.2-0.2,12.4-0.1,18.6,0.5c0.4,0,4.6,0.8,4.8,0.5c0,0.1-3.8-0.6-1.8-0.2c0.8,0.1,1.6,0.2,2.3,0.4
							c2.9,0.5,5.7,1.1,8.6,1.8c3,0.7,5.9,1.6,8.7,2.6c1.2,0.4,2.5,0.9,3.7,1.4c1.4,0.6-0.5-0.2-0.7-0.3c1.3,0.6,2.6,1.2,3.8,1.9
							c7.9,4.2,15.1,9.5,22.7,14.1c-2.2-8.2-4.3-16.4-6.5-24.6c-0.6,1.3-1.2,2.6-1.9,3.8c-4.1,8.5-2.6,19.9,6.5,24.6
							C889.1,222.7,901.2,221,905.6,212z"/>
					</g>
				</g>
			</g>
		</g>
		<g>
			<g>
				<path class="st2" d="M544.9,397.4c68.2,27.1,136.1,54.7,204.6,81c41.7,16.1,84.4,29.7,126.3,45.5c11.8,4.4,22.8,11.6,33.4,18.7
					c15.1,10.1,11.3,23.7,5,37c-6.3,13.4-13.4,28.1-31.8,21.4c-22.3-8.2-44.6-17.4-65.4-28.9c-77-42.7-153.3-86.6-230-129.6
					c-13.9-7.8-30-12-43.3-20.6c-23.4-15.2-43.7-10.6-68.1,0.1c-95.3,41.6-182.7,97.2-272.1,149.4c-19.1,11.2-40,19.8-60.9,27.5
					c-15.8,5.9-23.4,0.6-32.5-17.2c-10.7-20.9-11.1-32.6,3.5-41c22.1-12.7,45.2-24.3,69.2-32.6c93.7-32.6,188.3-62.5,277.2-107.3
					c4.6-2.3,9.2-4.7,13.7-7c0.4-1.7,0.8-3.4,1.1-5.1c-21.6-6.6-43.2-13.2-64.8-20c-1.9-0.6-4-1.5-5.5-2.8
					c-21.3-18.2-39.9-21.6-64.8-6.5c-20.2,12.2-38,9.8-57.3,0.1C216.7,326,150.7,293.1,84.9,260c-3.7-1.8-7.2-4.1-9.7-9.6
					c4.9,1.5,9.9,2.6,14.5,4.6c51.1,21.5,102.1,43.2,153.2,64.8c3,1.3,5.9,3.6,8.8,3.5c4.7-0.1,9.3-1.9,13.9-3
					c-2.3-4.6-3.4-11.4-7.1-13.4c-28.2-15.2-56.8-29.5-85.3-44.2c-26.1-13.4-52.2-26.8-78.3-40.3c-2.1-1.1-3.7-2.9-4.2-7.5
					c4.7,1.5,9.5,2.6,14,4.6c52.6,22.2,105.1,44.5,157.6,66.7c2.9,1.2,6.1,3.6,8.8,3.1c4.1-0.7,7.9-3.3,11.9-5.1
					c-1.6-3.5-2.3-8.5-5.1-10.3c-8.5-5.4-17.8-9.7-26.8-14.3c-44.2-22.6-88.4-45.2-132.5-67.9c-4.4-2.3-8.5-5.3-12.7-7.9
					c0.6-1.2,1.1-2.4,1.7-3.5c4.6,1.6,9.3,2.9,13.7,4.8c50.6,21.3,101.2,42.7,151.8,64.1c3.4,1.5,6.9,4.1,10.3,4.2
					c5,0.1,10.1-1.7,15.2-2.6c-2.5-4.4-4-10.9-7.8-13c-28.1-15.3-56.7-29.8-85.1-44.5c-27.8-14.3-55.7-28.6-82.4-46.6
					c3.4,0.8,7.1,1.1,10.2,2.5c69.5,30,139,60.2,208.5,90.3c18.4,8,29.9,20.6,33,41.6c4.1,27.3,20,41,47.4,47.3
					c5.6,1.3,9.3,9.5,15,12.5c22.3,11.5,44.9,22.4,67.7,32.9c3.5,1.6,9.2,0.7,13-1.1c21.8-10.1,43.4-20.6,64.8-31.5
					c10.5-5.3,18.4-13.4,31.5-16.3c14.3-3.1,26.5-14.9,24-34.6c-3.1-24.4,6.6-45.8,23.5-62.4c53.6-52.7,117-80,193.2-66.4
					c57.5,10.3,80.7,55.9,56.9,109.2c-15.8,35.5-43,61.2-76.5,79.5C796.6,371,756,388.7,710.4,379c-14.9-3.2-29.4-11.8-42.1-20.8
					c-14.3-10.2-35-10.7-47.3,1.5c-3.4,3.4-9.1,4.7-13.9,6.6c-20.1,7.9-40.4,15.7-60.5,23.5C546,392.3,545.4,394.8,544.9,397.4z
					 M890.1,198.9c0.6-1.3,1.2-2.6,1.9-3.8c-9.8-5.9-19.1-13.2-29.6-17.4c-61.7-24.9-165.7,12.3-198.7,70.4
					c-20,35.1-8.4,83.7,26.4,105.3c-1.3-3.7-2-6-2.9-8.3c-18.2-44-9.9-78.3,28.2-107.4C767.2,198,824.4,178.9,890.1,198.9z"/>
			</g>
		</g>
	</g>
	<g id="Capa_5">
		<g>
			<path d="M627.6,278.4c38.9-15.7,76.1-16.8,112.2,3.6c43.4,24.4,66.3,71.8,58.8,121.6c-7.1,47.6-43.7,89.1-91.7,96.5
				c-24.2,3.7-27.3,15.7-26.2,34.5c0.7,12.6,1.8,25.2,2.9,39.5c-7.5,0-13.7,0.7-19.6-0.1c-84.8-11.7-169.6-11.8-254.4,0
				c-22.1,3.1-22.7,2-19-20.9c1.5-9.4,2.8-19,2.9-28.6c0.4-35.2-1-36.7-34.7-45.3c-49.9-12.7-84.4-55.7-86.2-107.2
				c-1.7-50.4,29.6-95.7,76.9-112.6c8.5-3,17.8-7.9,23.4-14.7c69.8-84.6,194.8-73.9,248,21.8C622.6,269.9,624.5,273.1,627.6,278.4z
				 M610.5,405.9c1.1,1.8,2.2,3.6,3.3,5.4c-3.4,5.9-5.6,13.2-10.4,17.6c-11.8,10.8-10.2,19.2,0.3,30.2c36.4,37.8,94.5,44,138.6,13.8
				c42.8-29.3,58.4-85.7,36.7-132.7c-22.1-47.9-75.9-72.7-126.4-58.4c-13.4,3.8-24.8,7.9-18.5,25.8c0.7,2.1-2.5,5.6-6.2,13
				c-18.6-73.6-60.1-118.1-133.7-120.8c-73.2-2.8-116.9,40-140.9,107.6c-1.9-1.3-3.8-2.7-5.7-4c1.9-9.8,3.7-19.7,5.6-29.6
				c-29.6,4.5-58.3,34.6-66.4,69c-10.3,43.5,5.7,86.4,42.2,111.1c26.4,17.8,54.8,22.4,86.7,12.7c-12.8-12.2-23.6-22.3-34.3-32.5
				c0.9-2.5,1.9-5,2.8-7.5C466.5,494.7,541.8,486,610.5,405.9z M404.7,558c88.2,0,176.4,0,265.3,0c0-16.7,0-34.9,0-54.5
				c-36.6-4.6-64.8-23.1-87.3-51.7c-5.5,3.3-9.8,5.9-14,8.5c-36.3,22-74.8,26.7-116.3,18.4c-13.5-2.7-28.3,0.7-42.4,2.6
				c-3.1,0.4-7.8,6.6-7.8,10.1C402.4,514.2,403.8,536.9,404.7,558z"/>
			<path class="st3" d="M610.5,405.9c-68.7,80.2-144,88.8-226.3,20.5c-0.9,2.5-1.9,5-2.8,7.5c10.7,10.2,21.5,20.3,34.3,32.5
				c-31.9,9.7-60.4,5.1-86.7-12.7c-36.5-24.7-52.4-67.6-42.2-111.1c8.1-34.4,36.9-64.5,66.4-69c-1.9,10-3.7,19.8-5.6,29.6
				c1.9,1.3,3.8,2.7,5.7,4c24-67.6,67.7-110.4,140.8-107.7c73.6,2.7,115.2,47.2,133.7,120.8c3.7-7.4,6.9-10.9,6.2-13
				c-6.3-17.9,5.2-22,18.5-25.8c50.5-14.2,104.3,10.5,126.4,58.4c21.7,47,6.1,103.4-36.7,132.7c-44,30.1-102.2,23.9-138.6-13.8
				c-10.6-11-12.2-19.4-0.3-30.2c4.8-4.4,7-11.6,10.4-17.6C612.7,409.5,611.6,407.7,610.5,405.9z"/>
			<path class="st3" d="M404.7,558c-0.9-21.1-2.3-43.8-2.6-66.6c0-3.5,4.7-9.7,7.8-10.1c14-1.9,28.9-5.3,42.4-2.6
				c41.5,8.3,80,3.6,116.3-18.4c4.3-2.6,8.5-5.1,14-8.5c22.5,28.6,50.8,47.1,87.3,51.7c0,19.6,0,37.8,0,54.5
				C581.1,558,492.9,558,404.7,558z"/>
		</g>
	</g>
	<g id="Capa_3">
		<g>
			<g>
				<g>
					<g>
						<path class="st4" d="M954,791.9H88c-7.7,0-14-6.3-14-14v-161c0-7.7,6.3-14,14-14h866c7.7,0,14,6.3,14,14v161
							C968,785.6,961.7,791.9,954,791.9z"/>
						<g>
							<path class="st4" d="M1006.1,635.6H955c-3.9,0-7,3.1-7,7v47.7c0,3.9,3.1,7,7,7h16c2.2,0,4.3-1.1,5.6-2.8l35.1-47.7
								C1015.2,642.1,1011.9,635.6,1006.1,635.6z"/>
							<path class="st4" d="M1006.1,759.2H955c-3.9,0-7-3.1-7-7v-47.7c0-3.9,3.1-7,7-7h16c2.2,0,4.3,1.1,5.6,2.8l35.1,47.7
								C1015.2,752.7,1011.9,759.2,1006.1,759.2z"/>
						</g>
					</g>
				</g>
			</g>
			<g>
				<path class="st4" d="M39.3,635.6h51.1c3.9,0,7,3.1,7,7v47.7c0,3.9-3.1,7-7,7h-16c-2.2,0-4.3-1.1-5.6-2.8l-35.1-47.7
					C30.2,642.1,33.5,635.6,39.3,635.6z"/>
				<path class="st4" d="M39.3,759.2h51.1c3.9,0,7-3.1,7-7v-47.7c0-3.9-3.1-7-7-7h-16c-2.2,0-4.3,1.1-5.6,2.8L33.7,748
					C30.2,752.7,33.5,759.2,39.3,759.2z"/>
			</g>
		</g>
	</g>
	<g id="Capa_4">
		<g>
			<rect x="97.8" y="603" class="st5" width="850.3" height="189"/>
			<text transform="matrix(1 0 0 1 121.5552 753.6919)" class="st3 st6 st7">COMIAPP</text>
		</g>
	</g>
	<g id="Capa_2_00000176008069808843126090000009693113793164855682_" class="st0">
		
			<image style="display:inline;overflow:visible;opacity:0.27;enable-background:new    ;" width="308" height="316" xlink:href="D:\Nueva carpeta (5)\Imprebook\Pedidos\marta muño\5FB391CE.jpg"  transform="matrix(3.7942 0 0 3.7942 -128.8079 -62.1873)">
		</image>
	</g>
</g>
</svg>
